<svg width="20" height="17" viewBox="0 0 20 17" fill="none" xmlns="http://www.w3.org/2000/svg">
<path fill-rule="evenodd" clip-rule="evenodd" d="M1.1991 13.8459H0.509271V13.4305H4.19388H15.8055H19.4905V13.8459H18.6795C18.5391 13.8459 18.424 13.96 18.424 14.1006V15.1739C18.424 15.3144 18.5391 15.4285 18.6795 15.4285H19.4905V15.863H0.509271V15.4285H1.1991C1.33967 15.4285 1.45374 15.3144 1.45374 15.1739V14.1006C1.45374 13.96 1.33967 13.8459 1.1991 13.8459ZM3.87714 12.8015H2.67217V3.4415H3.87714V12.8015ZM15.5508 12.9208H4.44918V3.45084H15.5508V12.9208ZM17.0841 12.8015H16.0603V3.4415H17.0841V12.8015ZM0.509271 2.94157V2.50725H1.1991C1.33967 2.50725 1.45374 2.3921 1.45374 2.25262V1.17932C1.45374 1.03875 1.33967 0.9236 1.1991 0.9236H0.509271V0.50884H19.4905V0.9236H18.6795C18.5391 0.9236 18.424 1.03875 18.424 1.17932V2.25262C18.424 2.39232 18.5391 2.50725 18.6795 2.50725H19.4905V2.94157H17.3846C17.3698 2.93874 17.355 2.93201 17.3396 2.93201H15.8055C15.7892 2.93201 15.7753 2.93853 15.7592 2.94157H4.17781C4.16239 2.93874 4.14826 2.93201 4.13153 2.93201H2.41687C2.40167 2.93201 2.38668 2.93853 2.37126 2.94157H0.509271ZM0.255298 14.9195C0.114293 14.9195 0 15.0335 0 15.1741V16.1179C0 16.2585 0.114293 16.3725 0.255298 16.3725H19.7443C19.8857 16.3725 20 16.2585 20 16.1179V15.1741C20 15.0335 19.8857 14.9195 19.7443 14.9195H18.9339V14.3548H19.7443C19.8857 14.3548 20 14.2407 20 14.1008V13.1763C20 13.0347 19.8857 12.921 19.7443 12.921H17.5934V3.45106H19.7443C19.8857 3.45106 20 3.33699 20 3.19664V2.25284C20 2.11227 19.8857 1.99798 19.7443 1.99798H18.9339V1.4344H19.7443C19.8857 1.4344 20 1.31968 20 1.17976V0.254423C20 0.113852 19.8857 0 19.7443 0H0.255298C0.114293 0 0 0.113852 0 0.254423V1.17976C0 1.31968 0.114293 1.4344 0.255298 1.4344H0.943591V1.99798H0.255298C0.114293 1.99798 0 2.11227 0 2.25284V3.19664C0 3.33699 0.114293 3.45106 0.255298 3.45106H2.16266V12.921H0.255298C0.114293 12.921 0 13.0349 0 13.1763V14.1008C0 14.2407 0.114293 14.3548 0.255298 14.3548H0.943591V14.9195H0.255298Z" fill="white"/>
<path fill-rule="evenodd" clip-rule="evenodd" d="M2.67189 1.43397H4.05065V1.99865H2.67189V1.43397ZM4.30529 2.50705C4.44586 2.50705 4.55993 2.39233 4.55993 2.25263V1.17912C4.55993 1.03811 4.44586 0.923828 4.30529 0.923828H2.41702C2.27645 0.923828 2.1626 1.03811 2.1626 1.17912V2.25263C2.1626 2.39233 2.27645 2.50705 2.41702 2.50705H4.30529Z" fill="white"/>
<path fill-rule="evenodd" clip-rule="evenodd" d="M5.89987 1.43397H7.27886V1.99865H5.89987V1.43397ZM5.64457 2.50705H7.53329C7.67321 2.50705 7.78813 2.39233 7.78813 2.25263V1.17912C7.78813 1.03811 7.67321 0.923828 7.53329 0.923828H5.64457C5.50465 0.923828 5.39059 1.03811 5.39059 1.17912V2.25263C5.39059 2.39211 5.50465 2.50705 5.64457 2.50705Z" fill="white"/>
<path fill-rule="evenodd" clip-rule="evenodd" d="M9.24992 1.43397H10.6278V1.99865H9.24992V1.43397ZM8.99463 2.50705H10.8835C11.0241 2.50705 11.1375 2.39233 11.1375 2.25263V1.17912C11.1375 1.03811 11.0241 0.923828 10.8835 0.923828H8.99463C8.85471 0.923828 8.73999 1.03811 8.73999 1.17912V2.25263C8.73999 2.39211 8.85471 2.50705 8.99463 2.50705Z" fill="white"/>
<path fill-rule="evenodd" clip-rule="evenodd" d="M12.4778 1.43397H13.8568V1.99865H12.4778V1.43397ZM12.2234 2.50705H14.1108C14.252 2.50705 14.3654 2.39233 14.3654 2.25263V1.17912C14.3654 1.03811 14.252 0.923828 14.1108 0.923828H12.2234C12.0828 0.923828 11.9679 1.03811 11.9679 1.17912V2.25263C11.9679 2.39211 12.0828 2.50705 12.2234 2.50705Z" fill="white"/>
<path fill-rule="evenodd" clip-rule="evenodd" d="M15.705 1.43397H17.0836V1.99865H15.705V1.43397ZM15.4513 2.50705H17.3395C17.4801 2.50705 17.594 2.39233 17.594 2.25263V1.17912C17.594 1.03811 17.4801 0.923828 17.3395 0.923828H15.4513C15.3107 0.923828 15.1964 1.03811 15.1964 1.17912V2.25263C15.1962 2.39211 15.3105 2.50705 15.4513 2.50705Z" fill="white"/>
<path fill-rule="evenodd" clip-rule="evenodd" d="M9.24992 14.3551H10.6278V14.9198H9.24992V14.3551ZM8.99463 15.429H10.8835C11.0241 15.429 11.1375 15.3152 11.1375 15.1746V14.1011C11.1375 13.9607 11.0241 13.8467 10.8835 13.8467H8.99463C8.85471 13.8467 8.73999 13.9607 8.73999 14.1011V15.1746C8.73999 15.3152 8.85471 15.429 8.99463 15.429Z" fill="white"/>
<path fill-rule="evenodd" clip-rule="evenodd" d="M15.705 14.3551H17.0836V14.9198H15.705V14.3551ZM15.4513 15.429H17.3395C17.4801 15.429 17.594 15.3152 17.594 15.1746V14.1011C17.594 13.9607 17.4801 13.8467 17.3395 13.8467H15.4513C15.3107 13.8467 15.1964 13.9607 15.1964 14.1011V15.1746C15.1962 15.3152 15.3105 15.429 15.4513 15.429Z" fill="white"/>
<path fill-rule="evenodd" clip-rule="evenodd" d="M12.4778 14.3551H13.8568V14.9198H12.4778V14.3551ZM12.2234 15.429H14.1108C14.252 15.429 14.3654 15.3152 14.3654 15.1746V14.1011C14.3654 13.9607 14.252 13.8467 14.1108 13.8467H12.2234C12.0828 13.8467 11.9679 13.9607 11.9679 14.1011V15.1746C11.9679 15.3152 12.0828 15.429 12.2234 15.429Z" fill="white"/>
<path fill-rule="evenodd" clip-rule="evenodd" d="M5.89987 14.3551H7.27886V14.9198H5.89987V14.3551ZM5.64457 15.429H7.53329C7.67321 15.429 7.78813 15.3152 7.78813 15.1746V14.1011C7.78813 13.9607 7.67321 13.8467 7.53329 13.8467H5.64457C5.50465 13.8467 5.39059 13.9607 5.39059 14.1011V15.1746C5.39059 15.3152 5.50465 15.429 5.64457 15.429Z" fill="white"/>
<path fill-rule="evenodd" clip-rule="evenodd" d="M2.67189 14.3551H4.05065V14.9198H2.67189V14.3551ZM2.41702 15.429H4.30529C4.44586 15.429 4.55993 15.3152 4.55993 15.1746V14.1011C4.55993 13.9607 4.44586 13.8467 4.30529 13.8467H2.41702C2.27645 13.8467 2.1626 13.9607 2.1626 14.1011V15.1746C2.1626 15.3152 2.27645 15.429 2.41702 15.429Z" fill="white"/>
</svg>
