<svg width="20" height="20" viewBox="0 0 20 20" fill="none" xmlns="http://www.w3.org/2000/svg">
<path d="M16.8 9.08125C16.9281 8.74688 17 8.38125 17 8C17 6.34375 15.6562 5 14 5C13.3844 5 12.8094 5.1875 12.3344 5.50625C11.4688 4.00625 9.85312 3 8 3C5.2375 3 3 5.2375 3 8C3 8.08437 3.00312 8.16875 3.00625 8.25313C1.25625 8.86875 0 10.5375 0 12.5C0 14.9844 2.01562 17 4.5 17H16C18.2094 17 20 15.2094 20 13C20 11.0656 18.625 9.45 16.8 9.08125ZM12.6469 11.8531L9.35312 15.1469C9.15937 15.3406 8.84063 15.3406 8.64688 15.1469L5.35313 11.8531C5.0375 11.5375 5.2625 11 5.70625 11H7.75V7.5C7.75 7.225 7.975 7 8.25 7H9.75C10.025 7 10.25 7.225 10.25 7.5V11H12.2937C12.7375 11 12.9625 11.5375 12.6469 11.8531Z" fill="#F0F0F0"/>
</svg>
