<svg width="20" height="20" viewBox="0 0 20 20" fill="none" xmlns="http://www.w3.org/2000/svg">
<path d="M18.125 18.75H1.875C0.839453 18.75 0 17.9105 0 16.875V3.125C0 2.08945 0.839453 1.25 1.875 1.25H18.125C19.1605 1.25 20 2.08945 20 3.125V16.875C20 17.9105 19.1605 18.75 18.125 18.75ZM5 4.6875C4.13707 4.6875 3.4375 5.38707 3.4375 6.25C3.4375 7.11293 4.13707 7.8125 5 7.8125C5.86293 7.8125 6.5625 7.11293 6.5625 6.25C6.5625 5.38707 5.86293 4.6875 5 4.6875ZM5 8.4375C4.13707 8.4375 3.4375 9.13707 3.4375 10C3.4375 10.8629 4.13707 11.5625 5 11.5625C5.86293 11.5625 6.5625 10.8629 6.5625 10C6.5625 9.13707 5.86293 8.4375 5 8.4375ZM5 12.1875C4.13707 12.1875 3.4375 12.8871 3.4375 13.75C3.4375 14.6129 4.13707 15.3125 5 15.3125C5.86293 15.3125 6.5625 14.6129 6.5625 13.75C6.5625 12.8871 5.86293 12.1875 5 12.1875ZM16.25 6.875V5.625C16.25 5.36613 16.0401 5.15625 15.7812 5.15625H7.96875C7.70988 5.15625 7.5 5.36613 7.5 5.625V6.875C7.5 7.13387 7.70988 7.34375 7.96875 7.34375H15.7812C16.0401 7.34375 16.25 7.13387 16.25 6.875ZM16.25 10.625V9.375C16.25 9.11613 16.0401 8.90625 15.7812 8.90625H7.96875C7.70988 8.90625 7.5 9.11613 7.5 9.375V10.625C7.5 10.8839 7.70988 11.0938 7.96875 11.0938H15.7812C16.0401 11.0938 16.25 10.8839 16.25 10.625ZM16.25 14.375V13.125C16.25 12.8661 16.0401 12.6562 15.7812 12.6562H7.96875C7.70988 12.6562 7.5 12.8661 7.5 13.125V14.375C7.5 14.6339 7.70988 14.8438 7.96875 14.8438H15.7812C16.0401 14.8438 16.25 14.6339 16.25 14.375Z" fill="#F0F0F0"/>
</svg>
