<svg width="20" height="20" viewBox="0 0 20 20" fill="none" xmlns="http://www.w3.org/2000/svg">
<path d="M8.74024 5.10742L6.03985 0.607031C5.92882 0.421898 5.77173 0.268679 5.58388 0.162298C5.39604 0.0559177 5.18385 2.65049e-06 4.96797 0H0.626174C0.120315 0 -0.175779 0.569141 0.114065 0.983594L4.46055 7.19297C5.62149 6.1082 7.09805 5.36367 8.74024 5.10742ZM19.3738 0H15.032C14.593 0 14.1859 0.230469 13.9602 0.607031L11.2598 5.10742C12.902 5.36367 14.3785 6.1082 15.5395 7.19258L19.8859 0.983594C20.1758 0.569141 19.8797 0 19.3738 0ZM10 6.25C6.20313 6.25 3.125 9.32812 3.125 13.125C3.125 16.9219 6.20313 20 10 20C13.7969 20 16.875 16.9219 16.875 13.125C16.875 9.32812 13.7969 6.25 10 6.25ZM13.6141 12.393L12.1324 13.8367L12.4828 15.8766C12.5453 16.2422 12.1602 16.5215 11.8324 16.3488L10 15.3859L8.16797 16.3488C7.83985 16.5227 7.45508 16.2418 7.51758 15.8766L7.86797 13.8367L6.38633 12.393C6.11992 12.1336 6.26719 11.6809 6.63438 11.6277L8.68242 11.3293L9.59766 9.47305C9.68008 9.30586 9.83946 9.22344 9.99922 9.22344C10.1598 9.22344 10.3203 9.30703 10.4027 9.47305L11.318 11.3293L13.366 11.6277C13.7332 11.6809 13.8805 12.1336 13.6141 12.393Z" fill="#F0F0F0"/>
</svg>
