<svg width="20" height="20" viewBox="0 0 20 20" fill="none" xmlns="http://www.w3.org/2000/svg">
<path d="M18.125 2.5H1.875C0.839844 2.5 0 3.33984 0 4.375V15.625C0 16.6602 0.839844 17.5 1.875 17.5H18.125C19.1602 17.5 20 16.6602 20 15.625V4.375C20 3.33984 19.1602 2.5 18.125 2.5ZM8.51953 11.2383C8.62891 11.1406 8.79688 11.1562 8.87891 11.2734L9.64062 12.3555C9.70703 12.4492 9.69922 12.5742 9.62109 12.6562C7.52734 14.875 2.87109 13.9102 2.87109 10.0039C2.87109 6.20312 7.625 5.33594 9.60938 7.26562C9.69141 7.34375 9.70703 7.39062 9.64844 7.48828L8.96484 8.67969C8.89062 8.80078 8.72266 8.83594 8.60938 8.74609C7.01562 7.49609 4.91406 8.16406 4.91406 9.96484C4.91797 11.8398 6.91016 12.7188 8.51953 11.2383ZM15.957 11.2383C16.0664 11.1406 16.2344 11.1562 16.3164 11.2734L17.0781 12.3555C17.1445 12.4492 17.1367 12.5742 17.0586 12.6562C14.9688 14.8789 10.3125 13.9102 10.3125 10.0039C10.3125 6.20312 15.0664 5.33594 17.0508 7.26562C17.1328 7.34375 17.1484 7.39062 17.0898 7.48828L16.4062 8.67969C16.332 8.80078 16.1641 8.83594 16.0508 8.74609C14.457 7.49609 12.3555 8.16406 12.3555 9.96484C12.3555 11.8398 14.3477 12.7188 15.957 11.2383Z" fill="#F0F0F0"/>
</svg>
