<svg width="20" height="20" viewBox="0 0 20 20" fill="none" xmlns="http://www.w3.org/2000/svg">
<path fill-rule="evenodd" clip-rule="evenodd" d="M2.5 5C2.5 4.33696 2.76339 3.70107 3.23223 3.23223C3.70107 2.76339 4.33696 2.5 5 2.5H15C15.663 2.5 16.2989 2.76339 16.7678 3.23223C17.2366 3.70107 17.5 4.33696 17.5 5V15C17.5 15.663 17.2366 16.2989 16.7678 16.7678C16.2989 17.2366 15.663 17.5 15 17.5H5C4.33696 17.5 3.70107 17.2366 3.23223 16.7678C2.76339 16.2989 2.5 15.663 2.5 15V5ZM14.375 10C14.3749 10.1657 14.3089 10.3246 14.1917 10.4417L12.3167 12.3167C12.2594 12.3781 12.1904 12.4273 12.1138 12.4615C12.0371 12.4956 11.9544 12.514 11.8704 12.5155C11.7865 12.517 11.7032 12.5015 11.6253 12.4701C11.5475 12.4387 11.4768 12.3919 11.4175 12.3325C11.3581 12.2732 11.3113 12.2025 11.2799 12.1247C11.2485 12.0468 11.233 11.9635 11.2345 11.8796C11.236 11.7956 11.2544 11.7129 11.2885 11.6362C11.3227 11.5596 11.3719 11.4906 11.4333 11.4333L12.8667 10L11.4333 8.56667C11.3719 8.50945 11.3227 8.44045 11.2885 8.36378C11.2544 8.28712 11.236 8.20435 11.2345 8.12043C11.233 8.03652 11.2485 7.95316 11.2799 7.87534C11.3113 7.79751 11.3581 7.72682 11.4175 7.66747C11.4768 7.60812 11.5475 7.56133 11.6253 7.5299C11.7032 7.49846 11.7865 7.48303 11.8704 7.48451C11.9544 7.48599 12.0371 7.50436 12.1138 7.53852C12.1904 7.57268 12.2594 7.62193 12.3167 7.68333L14.1917 9.55833C14.3092 9.675 14.375 9.83417 14.375 10ZM5.80833 9.55833C5.69129 9.67552 5.62555 9.83437 5.62555 10C5.62555 10.1656 5.69129 10.3245 5.80833 10.4417L7.68333 12.3167C7.74055 12.3781 7.80955 12.4273 7.88622 12.4615C7.96288 12.4956 8.04565 12.514 8.12956 12.5155C8.21348 12.517 8.29684 12.5015 8.37466 12.4701C8.45249 12.4387 8.52318 12.3919 8.58253 12.3325C8.64188 12.2732 8.68867 12.2025 8.7201 12.1247C8.75154 12.0468 8.76697 11.9635 8.76549 11.8796C8.76401 11.7956 8.74564 11.7129 8.71148 11.6362C8.67732 11.5596 8.62807 11.4906 8.56667 11.4333L7.13333 10L8.56667 8.56667C8.62807 8.50945 8.67732 8.44045 8.71148 8.36378C8.74564 8.28712 8.76401 8.20435 8.76549 8.12043C8.76697 8.03652 8.75154 7.95316 8.7201 7.87534C8.68867 7.79751 8.64188 7.72682 8.58253 7.66747C8.52318 7.60812 8.45249 7.56133 8.37466 7.5299C8.29684 7.49846 8.21348 7.48303 8.12956 7.48451C8.04565 7.48599 7.96288 7.50436 7.88622 7.53852C7.80955 7.57268 7.74055 7.62193 7.68333 7.68333L5.80833 9.55833Z" fill="#F0F0F0"/>
</svg>
